<svg xmlns="http://www.w3.org/2000/svg" width="158" height="35" viewBox="0 0 158 35" fill="none"><g clip-path="url(#clip0_1_838)"><path d="M34.8951 0.000976562L19.7451 8.76239V26.2396L34.8951 35.001L50.045 26.2396V8.76239L34.8951 0.000976562ZM42.5613 11.8654L34.8951 16.2005L27.3201 11.8198L34.8951 7.43905L42.5613 11.8654ZM26.4074 13.28L34.028 17.7063V26.6046L26.4074 22.1783V13.28ZM35.7621 26.6046V17.7063L43.3827 13.28V22.1783L35.7621 26.6046Z" fill="#FF6A5B"></path><path d="M1.11799 12.8237C1.8618 11.4501 2.89765 10.3869 4.21643 9.62941C5.5352 8.87191 7.0502 8.49316 8.75228 8.49316C10.9472 8.49316 12.7588 9.04075 14.1962 10.1359C15.6336 11.2311 16.5965 12.7735 17.0847 14.7539H12.2614C12.0059 13.9873 11.5769 13.385 10.97 12.9469C10.3631 12.5088 9.61017 12.2898 8.71578 12.2898C7.43807 12.2898 6.42503 12.7552 5.68123 13.677C4.93742 14.6033 4.56323 15.9175 4.56323 17.6242C4.56323 19.3308 4.93742 20.6085 5.68123 21.5394C6.42503 22.4658 7.43807 22.9267 8.71578 22.9267C10.5274 22.9267 11.7093 22.119 12.2614 20.499H17.0847C16.5965 22.4156 15.6245 23.9397 14.178 25.0668C12.7314 26.1939 10.9198 26.7598 8.74772 26.7598C7.04563 26.7598 5.53064 26.381 4.21187 25.6281C2.89309 24.8706 1.85724 23.8074 1.11343 22.4338C0.369623 21.0603 -0.00456238 19.4586 -0.00456238 17.6242C-0.00456238 15.7898 0.369623 14.1926 1.11343 12.8191L1.11799 12.8237Z" fill="#0D2743"></path><path d="M69.1239 10.5241C70.4244 11.8566 71.0724 13.7138 71.0724 16.0958V26.4772H66.6004V16.7027C66.6004 15.2972 66.249 14.2157 65.5463 13.4628C64.8435 12.7053 63.8853 12.3311 62.6714 12.3311C61.4576 12.3311 60.4628 12.7099 59.751 13.4628C59.0391 14.2203 58.6786 15.2972 58.6786 16.7027V26.4772H54.2066V8.78093H58.6786V10.985C59.2764 10.2184 60.0385 9.616 60.9602 9.1825C61.8866 8.74443 62.9042 8.52539 64.013 8.52539C66.1213 8.52539 67.8233 9.19162 69.1239 10.5241Z" fill="#0D2743"></path><path d="M82.6995 22.3564L87.1714 8.78076H91.9309L85.3827 26.477H79.9524L73.4361 8.78076H78.2275L82.6995 22.3564Z" fill="#0D2743"></path><path d="M110.777 18.9703H97.8403C97.9452 20.2481 98.3924 21.2474 99.1819 21.973C99.9713 22.6985 100.939 23.059 102.089 23.059C103.75 23.059 104.932 22.3471 105.634 20.9188H110.458C109.947 22.6209 108.965 24.0218 107.519 25.1216C106.072 26.2168 104.293 26.7644 102.184 26.7644C100.482 26.7644 98.9537 26.3856 97.603 25.6327C96.2523 24.8752 95.1982 23.8074 94.4407 22.4202C93.6832 21.0375 93.309 19.4404 93.309 17.6288C93.309 15.8172 93.6832 14.1881 94.427 12.8054C95.1708 11.4228 96.2158 10.355 97.5574 9.61116C98.899 8.86735 100.441 8.49316 102.189 8.49316C103.937 8.49316 105.379 8.85366 106.707 9.57921C108.039 10.3048 109.07 11.3315 109.805 12.6594C110.54 13.9919 110.909 15.5205 110.909 17.2409C110.909 17.8797 110.868 18.4547 110.782 18.9658L110.777 18.9703ZM106.273 15.9677C106.25 14.8178 105.835 13.896 105.027 13.2024C104.22 12.5088 103.229 12.1666 102.057 12.1666C100.948 12.1666 100.017 12.4997 99.264 13.175C98.5065 13.8458 98.0456 14.7767 97.8722 15.9677H106.273Z" fill="#0D2743"></path><path d="M117.038 25.9795C115.888 25.4593 114.98 24.752 114.309 23.853C113.638 22.9586 113.273 21.9684 113.205 20.8823H117.709C117.795 21.5623 118.128 22.1281 118.717 22.5753C119.301 23.0225 120.031 23.2461 120.903 23.2461C121.774 23.2461 122.418 23.0773 122.902 22.735C123.381 22.3928 123.618 21.9593 123.618 21.4254C123.618 20.8504 123.326 20.4169 122.742 20.134C122.158 19.8465 121.222 19.5316 119.949 19.1939C118.63 18.8745 117.549 18.546 116.709 18.2037C115.87 17.8615 115.144 17.3413 114.537 16.6385C113.93 15.9358 113.629 14.9866 113.629 13.7956C113.629 12.8145 113.912 11.9202 114.473 11.1125C115.039 10.3048 115.847 9.66591 116.901 9.1959C117.955 8.72589 119.196 8.49316 120.625 8.49316C122.733 8.49316 124.417 9.0225 125.671 10.0766C126.926 11.1307 127.62 12.5499 127.748 14.3387H123.467C123.404 13.6359 123.111 13.0746 122.587 12.664C122.066 12.2487 121.368 12.0388 120.497 12.0388C119.689 12.0388 119.064 12.1894 118.63 12.486C118.192 12.7826 117.973 13.1979 117.973 13.7318C117.973 14.3295 118.27 14.7813 118.868 15.0916C119.465 15.4019 120.392 15.7168 121.647 16.0316C122.924 16.3511 123.978 16.6796 124.809 17.0218C125.64 17.3641 126.36 17.8889 126.967 18.6053C127.574 19.3172 127.889 20.2617 127.907 21.4299C127.907 22.4521 127.625 23.3693 127.063 24.177C126.497 24.9847 125.69 25.619 124.636 26.0799C123.581 26.5408 122.354 26.7644 120.948 26.7644C119.543 26.7644 118.201 26.5042 117.052 25.984L117.038 25.9795Z" fill="#0D2743"></path><path d="M136.044 8.78076V26.477H131.572V8.78076H136.044Z" fill="#0D2743"></path><path d="M143.71 25.6283C142.345 24.8708 141.278 23.803 140.497 22.4158C139.722 21.0331 139.329 19.436 139.329 17.6244C139.329 15.8128 139.731 14.2156 140.525 12.833C141.323 11.4503 142.414 10.3779 143.801 9.62501C145.184 8.86752 146.731 8.48877 148.433 8.48877C150.135 8.48877 151.682 8.86752 153.065 9.62501C154.447 10.3825 155.538 11.4503 156.336 12.833C157.135 14.2156 157.532 15.8128 157.532 17.6244C157.532 19.436 157.121 21.0331 156.304 22.4158C155.483 23.7984 154.379 24.8708 152.982 25.6283C151.586 26.3858 150.025 26.76 148.301 26.76C146.576 26.76 145.065 26.3812 143.701 25.6283H143.71ZM150.591 22.2743C151.303 21.8819 151.874 21.2886 152.298 20.5038C152.722 19.7143 152.937 18.756 152.937 17.6289C152.937 15.9451 152.494 14.6537 151.609 13.7502C150.724 12.8467 149.647 12.3903 148.369 12.3903C147.091 12.3903 146.019 12.8421 145.156 13.7502C144.294 14.6537 143.865 15.9497 143.865 17.6289C143.865 19.3082 144.285 20.6042 145.129 21.5122C145.969 22.4158 147.032 22.8675 148.305 22.8675C149.113 22.8675 149.875 22.6713 150.591 22.2789V22.2743Z" fill="#0D2743"></path><path d="M131.877 5.91942C131.357 5.41747 131.093 4.79687 131.093 4.0485C131.093 3.30013 131.353 2.67953 131.877 2.18213C132.398 1.68018 133.055 1.4292 133.84 1.4292C134.625 1.4292 135.282 1.68018 135.806 2.18213C136.327 2.68409 136.587 3.30469 136.587 4.0485C136.587 4.7923 136.327 5.41747 135.806 5.91942C135.286 6.42138 134.629 6.67235 133.84 6.67235C133.05 6.67235 132.398 6.42138 131.877 5.91942Z" fill="#0D2743"></path></g><defs><clipPath id="clip0_1_838"><rect width="157.541" height="35" fill="white" transform="translate(0 0.000976562)"></rect></clipPath></defs></svg>